<svg xmlns="http://www.w3.org/2000/svg"><defs><symbol id="icon-note" viewBox="0 0 20 20">
<path d="M6.31003 2C4.9579 2 3.84833 3.10957 3.84833 4.46169H2.00206C1.83885 4.46171 1.68232 4.52655 1.56691 4.64196C1.4515 4.75737 1.38666 4.9139 1.38664 5.07711V14.8686C1.36303 15.0281 1.40295 15.1905 1.4978 15.3208C1.59265 15.4512 1.73487 15.5391 1.89388 15.5657L16.2602 17.9914C16.4208 18.0185 16.5857 17.9809 16.7186 17.8867C16.8515 17.7925 16.9417 17.6495 16.9693 17.4889L17.2987 15.5393H18.0031C18.1663 15.5393 18.3228 15.4744 18.4382 15.359C18.5536 15.2436 18.6185 15.0871 18.6185 14.9239V5.07711C18.6185 4.9139 18.5536 4.75737 18.4382 4.64196C18.3228 4.52655 18.1663 4.46171 18.0031 4.46169H8.77172C8.77172 3.10957 7.66215 2 6.31003 2ZM6.31003 3.23085C6.99618 3.23085 7.54087 3.77553 7.54087 4.46169H5.07918C5.07918 3.77553 5.62387 3.23085 6.31003 3.23085ZM2.61749 5.69254H3.84833V8.76965C3.84833 9.78206 4.68219 10.6159 5.6946 10.6159C6.70701 10.6159 7.54087 9.78206 7.54087 8.76965V6.92338H6.31003V8.76965C6.31003 9.1161 6.04105 9.38508 5.6946 9.38508C5.34816 9.38508 5.07918 9.1161 5.07918 8.76965V5.69254H17.3876V14.3085H16.7794H2.61749V5.69254ZM8.77172 8.15423V9.38508H16.1568V8.15423H8.77172ZM8.77172 10.6159V11.8468H16.1568V10.6159H8.77172ZM9.12751 15.5393H16.051L15.8587 16.6764L9.12751 15.5393Z" fill="currentColor"></path>
</symbol><symbol id="icon-bulleted-list" viewBox="0 0 20 20">
<path d="M4.875 3.125C3.84687 3.125 3 3.97187 3 5C3 6.02813 3.84687 6.875 4.875 6.875C5.90313 6.875 6.75 6.02813 6.75 5C6.75 3.97187 5.90313 3.125 4.875 3.125ZM4.875 4.375C5.22758 4.375 5.5 4.64742 5.5 5C5.5 5.35258 5.22758 5.625 4.875 5.625C4.52242 5.625 4.25 5.35258 4.25 5C4.25 4.64742 4.52242 4.375 4.875 4.375ZM9.25 4.375V5.625H18V4.375H9.25ZM4.875 8.125C3.84687 8.125 3 8.97187 3 10C3 11.0281 3.84687 11.875 4.875 11.875C5.90313 11.875 6.75 11.0281 6.75 10C6.75 8.97187 5.90313 8.125 4.875 8.125ZM4.875 9.375C5.22758 9.375 5.5 9.64742 5.5 10C5.5 10.3526 5.22758 10.625 4.875 10.625C4.52242 10.625 4.25 10.3526 4.25 10C4.25 9.64742 4.52242 9.375 4.875 9.375ZM9.25 9.375V10.625H18V9.375H9.25ZM4.875 13.125C3.84687 13.125 3 13.9719 3 15C3 16.0281 3.84687 16.875 4.875 16.875C5.90313 16.875 6.75 16.0281 6.75 15C6.75 13.9719 5.90313 13.125 4.875 13.125ZM4.875 14.375C5.22758 14.375 5.5 14.6474 5.5 15C5.5 15.3526 5.22758 15.625 4.875 15.625C4.52242 15.625 4.25 15.3526 4.25 15C4.25 14.6474 4.52242 14.375 4.875 14.375ZM9.25 14.375V15.625H18V14.375H9.25Z" fill="currentColor"></path>
</symbol><symbol id="icon-document" viewBox="0 0 20 20">
<path d="M5.625 2.5C4.59473 2.5 3.75 3.34473 3.75 4.375V15.625C3.75 16.6553 4.59473 17.5 5.625 17.5H14.375C15.4053 17.5 16.25 16.6553 16.25 15.625V6.61621L12.1338 2.5H5.625ZM5.625 3.75H11.25V7.5H15V15.625C15 15.9766 14.7266 16.25 14.375 16.25H5.625C5.27344 16.25 5 15.9766 5 15.625V4.375C5 4.02344 5.27344 3.75 5.625 3.75ZM12.5 4.63379L14.1162 6.25H12.5V4.63379ZM7.5 10V11.25H12.5V10H7.5ZM7.5 12.5V13.75H11.25V12.5H7.5Z" fill="currentColor"></path>
</symbol><symbol id="icon-external-link" viewBox="0 0 20 20">
<path d="M11.25 2.5V3.75H15.3662L7.5293 11.5918L8.4082 12.4707L16.25 4.63379V8.75H17.5V2.5H11.25ZM5 5C3.61816 5 2.5 6.11816 2.5 7.5V15C2.5 16.3818 3.61816 17.5 5 17.5H12.5C13.8818 17.5 15 16.3818 15 15V8.75L13.75 10V15C13.75 15.6885 13.1885 16.25 12.5 16.25H5C4.31152 16.25 3.75 15.6885 3.75 15V7.5C3.75 6.81152 4.31152 6.25 5 6.25H10L11.25 5H5Z" fill="currentColor"></path>
</symbol><symbol id="icon-folder" viewBox="0 0 20 20">
<path d="M3.125 2.5C2.09473 2.5 1.25 3.34473 1.25 4.375V15.625C1.25 16.6553 2.09473 17.5 3.125 17.5H16.875C17.9053 17.5 18.75 16.6553 18.75 15.625V6.875C18.75 5.84473 17.9053 5 16.875 5H8.49609L7.68066 3.48633C7.35352 2.87598 6.71875 2.5 6.03027 2.5H3.125ZM3.125 3.75H6.03027C6.25977 3.75 6.46973 3.87695 6.58203 4.07715L7.08008 5H2.5V4.375C2.5 4.02344 2.77344 3.75 3.125 3.75ZM2.5 6.25H16.875C17.2266 6.25 17.5 6.52344 17.5 6.875V15.625C17.5 15.9766 17.2266 16.25 16.875 16.25H3.125C2.77344 16.25 2.5 15.9766 2.5 15.625V6.25Z" fill="currentColor"></path>
</symbol><symbol id="icon-help" viewBox="0 0 20 20">
<path d="M10 1.875C5.52246 1.875 1.875 5.52246 1.875 10C1.875 14.4775 5.52246 18.125 10 18.125C14.4775 18.125 18.125 14.4775 18.125 10C18.125 5.52246 14.4775 1.875 10 1.875ZM10 3.125C13.8037 3.125 16.875 6.19629 16.875 10C16.875 13.8037 13.8037 16.875 10 16.875C6.19629 16.875 3.125 13.8037 3.125 10C3.125 6.19629 6.19629 3.125 10 3.125ZM10.0732 5.625C8.55957 5.71289 7.32422 6.98242 7.32422 8.52539H8.57422C8.57422 7.50977 9.45312 6.71387 10.5273 6.89941C11.2939 7.03125 11.8994 7.7832 11.875 8.57422C11.8555 9.26758 11.4502 9.70703 10.8545 9.9707C10.4834 10.1367 10.1318 10.293 9.83398 10.6055C9.53613 10.918 9.375 11.3818 9.375 11.875H10.625C10.625 11.5918 10.6641 11.5479 10.7422 11.4648C10.8154 11.3867 11.0205 11.2646 11.3574 11.1133C12.29 10.708 13.0908 9.81445 13.125 8.61328C13.1689 7.19238 12.1484 5.9082 10.7373 5.66406C10.5127 5.62988 10.2881 5.61524 10.0732 5.625ZM9.375 13.125V14.375H10.625V13.125H9.375Z" fill="currentColor"></path>
</symbol><symbol id="icon-industry" viewBox="0 0 20 20">
<path d="M4.375 1.875C3.34473 1.875 2.5 2.71973 2.5 3.75V18.125H8.75V15.625H11.25V18.125H17.5V3.75C17.5 2.71973 16.6553 1.875 15.625 1.875H4.375ZM4.375 3.125H15.625C15.9766 3.125 16.25 3.39844 16.25 3.75V16.875H12.5V14.375H7.5V16.875H3.75V3.75C3.75 3.39844 4.02344 3.125 4.375 3.125ZM5 4.375V5.625H7.5V4.375H5ZM8.75 4.375V5.625H11.25V4.375H8.75ZM12.5 4.375V5.625H15V4.375H12.5ZM5 6.875V8.125H7.5V6.875H5ZM8.75 6.875V8.125H11.25V6.875H8.75ZM12.5 6.875V8.125H15V6.875H12.5ZM5 9.375V10.625H7.5V9.375H5ZM8.75 9.375V10.625H11.25V9.375H8.75ZM12.5 9.375V10.625H15V9.375H12.5ZM5 11.875V13.125H7.5V11.875H5ZM8.75 11.875V13.125H11.25V11.875H8.75ZM12.5 11.875V13.125H15V11.875H12.5ZM5 14.375V15.625H6.25V14.375H5ZM13.75 14.375V15.625H15V14.375H13.75Z" fill="currentColor"></path>
</symbol><symbol id="icon-info" viewBox="0 0 20 20">
<path d="M10 1.875C5.52246 1.875 1.875 5.52246 1.875 10C1.875 14.4775 5.52246 18.125 10 18.125C14.4775 18.125 18.125 14.4775 18.125 10C18.125 5.52246 14.4775 1.875 10 1.875ZM10 3.125C13.8037 3.125 16.875 6.19629 16.875 10C16.875 13.8037 13.8037 16.875 10 16.875C6.19629 16.875 3.125 13.8037 3.125 10C3.125 6.19629 6.19629 3.125 10 3.125ZM9.375 5.625V6.875H10.625V5.625H9.375ZM9.375 8.125V14.375H10.625V8.125H9.375Z" fill="currentColor"></path>
</symbol><symbol id="icon-quote" viewBox="0 0 20 20">
<path d="M7.5 3.125C5.43457 3.125 3.75 4.80957 3.75 6.875C3.75 8.94043 5.43457 10.625 7.5 10.625C9.56543 10.625 11.25 8.94043 11.25 6.875C11.25 4.80957 9.56543 3.125 7.5 3.125ZM7.5 10.625C4.05762 10.625 1.25 13.4326 1.25 16.875H2.5C2.5 14.1064 4.73145 11.875 7.5 11.875C10.2686 11.875 12.5 14.1064 12.5 16.875H13.75C13.75 13.4326 10.9424 10.625 7.5 10.625ZM13.54 3.125C12.9736 3.125 12.5 3.59863 12.5 4.16504V8.33496C12.5 8.90137 12.9736 9.375 13.54 9.375H13.75V10.6592L15.8008 9.375H17.71C18.2764 9.375 18.75 8.90137 18.75 8.33008V4.16504C18.75 3.59863 18.2764 3.125 17.71 3.125H13.54ZM7.5 4.375C8.88672 4.375 10 5.48828 10 6.875C10 8.26172 8.88672 9.375 7.5 9.375C6.11328 9.375 5 8.26172 5 6.875C5 5.48828 6.11328 4.375 7.5 4.375ZM13.75 4.375H17.5V8.125H15.4492L15 8.40332V8.125H13.75V4.375Z" fill="currentColor"></path>
</symbol><symbol id="icon-journal" viewBox="0 0 20 20">
<path d="M6.25 2.5C5.22184 2.5 4.375 3.34684 4.375 4.375V5H3.75H3.125V6.25H3.75H5.625V4.375C5.625 4.02316 5.89816 3.75 6.25 3.75H15C15.3518 3.75 15.625 4.02316 15.625 4.375V15.625C15.625 15.9768 15.3518 16.25 15 16.25H6.25C5.89816 16.25 5.625 15.9768 5.625 15.625V15H4.375V15.625C4.375 16.6532 5.22184 17.5 6.25 17.5H15C16.0282 17.5 16.875 16.6532 16.875 15.625V4.375C16.875 3.34684 16.0282 2.5 15 2.5H6.25ZM6.875 6.25V6.875V10H14.375V6.25H6.875ZM4.375 7.5V8.125V8.75H3.75H3.125V10H3.75H5.625V8.125V7.5H4.375ZM8.125 7.5H13.125V8.75H8.125V7.5ZM4.375 11.25V11.875V12.5H3.75H3.125V13.75H3.75H5.625V11.875V11.25H4.375Z" fill="currentColor"></path>
</symbol><symbol id="icon-chain-link" viewBox="0 0 20 20">
<path d="M14.7662 2C13.9105 2 13.1028 2.33654 12.5018 2.94231L10.2759 5.16346C9.47779 5.96154 9.19413 7.08173 9.4249 8.12019L10.6557 6.89423C10.7422 6.57692 10.9009 6.27885 11.1461 6.03365L13.372 3.80769C13.747 3.4375 14.2422 3.23077 14.7662 3.23077C15.2951 3.23077 15.7903 3.4375 16.1845 3.83173C16.5595 4.20673 16.7663 4.70192 16.7663 5.23077C16.7663 5.75481 16.5595 6.25481 16.1845 6.625L13.9634 8.85096C13.7278 9.08654 13.4297 9.24519 13.1172 9.33173L11.872 10.5769C12.098 10.6298 12.3287 10.6587 12.5691 10.6587C13.4249 10.6587 14.2278 10.3269 14.8336 9.72115L17.0547 7.5C18.3047 6.24519 18.3095 4.21154 17.0355 2.94231C16.4297 2.33654 15.6268 2 14.7662 2ZM12.4441 6.91827C12.2855 6.92308 12.1364 6.99039 12.0211 7.10577L7.09798 12.0288C6.85759 12.2644 6.85759 12.6587 7.09798 12.899C7.33836 13.1394 7.72779 13.1394 7.97298 12.899L12.8961 7.97596C13.0788 7.79808 13.1316 7.52885 13.0307 7.29327C12.9345 7.05769 12.6989 6.90865 12.4441 6.91827ZM7.4249 9.34135C6.56913 9.34135 5.76625 9.67308 5.16048 10.2788L2.93452 12.5048C1.68452 13.7548 1.68452 15.7885 2.95856 17.0625C3.58356 17.6875 4.40567 18 5.22298 18C6.04509 18 6.86721 17.6875 7.49221 17.0625L9.71337 14.8413C10.5162 14.0385 10.7999 12.9183 10.5691 11.8846L9.33836 13.1106C9.25183 13.4231 9.09317 13.7212 8.84798 13.9663L6.62202 16.1923C5.85279 16.9615 4.59317 16.9615 3.80471 16.1683C3.42971 15.7933 3.22779 15.2981 3.22779 14.7692C3.22779 14.2452 3.42971 13.75 3.80471 13.375L6.03067 11.149C6.27106 10.9087 6.56913 10.7452 6.88644 10.6538L8.12202 9.42308C7.89606 9.375 7.66529 9.34135 7.4249 9.34135Z" fill="currentColor"></path>
</symbol><symbol id="icon-list" viewBox="0 0 20 20">
<path d="M3.125 3.125C2.77832 3.125 2.5 3.40332 2.5 3.75V6.25C2.5 6.59668 2.77832 6.875 3.125 6.875H5.625C5.97168 6.875 6.25 6.59668 6.25 6.25V3.75C6.25 3.40332 5.97168 3.125 5.625 3.125H3.125ZM3.75 4.375H5V5.625H3.75V4.375ZM8.75 4.375V5.625H17.5V4.375H8.75ZM3.125 8.125C2.77832 8.125 2.5 8.40332 2.5 8.75V11.25C2.5 11.5967 2.77832 11.875 3.125 11.875H5.625C5.97168 11.875 6.25 11.5967 6.25 11.25V8.75C6.25 8.40332 5.97168 8.125 5.625 8.125H3.125ZM3.75 9.375H5V10.625H3.75V9.375ZM8.75 9.375V10.625H17.5V9.375H8.75ZM3.125 13.125C2.77832 13.125 2.5 13.4033 2.5 13.75V16.25C2.5 16.5967 2.77832 16.875 3.125 16.875H5.625C5.97168 16.875 6.25 16.5967 6.25 16.25V13.75C6.25 13.4033 5.97168 13.125 5.625 13.125H3.125ZM3.75 14.375H5V15.625H3.75V14.375ZM8.75 14.375V15.625H17.5V14.375H8.75Z" fill="currentColor"></path>
</symbol><symbol id="icon-note2" viewBox="0 0 20 20">
<path d="M15.8689 2.00003C15.4669 2.00261 15.067 2.15656 14.7676 2.46411L9.02548 8.30239L8.16946 11.9044L11.7715 11.0484L11.8917 10.9282L17.6098 5.30631C18.2249 4.70739 18.231 3.70332 17.6242 3.09651L16.9774 2.44969C16.674 2.14628 16.2709 1.99745 15.8689 2.00003ZM15.8761 3.22155C15.9582 3.22115 16.041 3.2542 16.1069 3.32014L16.7538 3.96697C16.8856 4.09884 16.8848 4.29632 16.7513 4.42624H16.7489L11.1559 9.92788L9.82861 10.2453L10.1436 8.92277L15.6477 3.32495V3.32254C15.7126 3.25583 15.794 3.22196 15.8761 3.22155ZM4.99784 3.22636C3.976 3.22636 3.15113 4.05122 3.15113 5.07307V5.68863H1.92V6.91977H4.38227V5.07307C4.38227 4.72835 4.65312 4.4575 4.99784 4.4575H11.079L12.2861 3.22636H4.99784ZM3.15113 8.15091V8.76648V9.38204H2.53557H1.92V10.6132H2.53557H4.38227V8.76648V8.15091H3.15113ZM15.4625 9.1488L14.2314 10.3535V16.1533C14.2314 16.498 13.9605 16.7689 13.6158 16.7689H4.99784C4.65312 16.7689 4.38227 16.498 4.38227 16.1533V15.5377H3.15113V16.1533C3.15113 17.1751 3.976 18 4.99784 18H13.6158C14.6376 18 15.4625 17.1751 15.4625 16.1533V9.1488ZM3.15113 11.8443V12.4599V13.0755H2.53557H1.92V14.3066H2.53557H4.38227V12.4599V11.8443H3.15113Z" fill="currentColor"></path>
</symbol><symbol id="icon-notes" viewBox="0 0 20 20">
<path d="M4.44448 2C3.09648 2 2.00004 3.09689 2.00004 4.44444V4.66667H2.03563C2.01126 4.73819 1.99922 4.81333 2.00004 4.88889V15.5556C2.00004 16.8977 3.10236 18 4.44448 18H15.5556C16.8977 18 18 16.8977 18 15.5556V4.88889C18.0009 4.81333 17.9888 4.73819 17.9645 4.66667H18V4.44444C18 3.09689 16.9036 2 15.5556 2H4.44448ZM3.29778 4.66667H16.7023C16.6779 4.73819 16.6659 4.81333 16.6667 4.88889V15.5556C16.6667 16.177 16.177 16.6667 15.5556 16.6667H4.44448C3.82305 16.6667 3.33337 16.177 3.33337 15.5556V4.88889C3.33419 4.81333 3.32215 4.73819 3.29778 4.66667ZM5.33337 6.88889C5.24503 6.88764 5.15732 6.90396 5.07534 6.9369C4.99337 6.96985 4.91875 7.01875 4.85584 7.08078C4.79292 7.14281 4.74297 7.21673 4.70887 7.29823C4.67477 7.37974 4.65721 7.46721 4.65721 7.55556C4.65721 7.64391 4.67477 7.73138 4.70887 7.81288C4.74297 7.89438 4.79292 7.9683 4.85584 8.03033C4.91875 8.09236 4.99337 8.14127 5.07534 8.17421C5.15732 8.20715 5.24503 8.22347 5.33337 8.22222H14.6667C14.755 8.22347 14.8428 8.20715 14.9247 8.17421C15.0067 8.14127 15.0813 8.09236 15.1442 8.03033C15.2072 7.9683 15.2571 7.89438 15.2912 7.81288C15.3253 7.73138 15.3429 7.64391 15.3429 7.55556C15.3429 7.46721 15.3253 7.37974 15.2912 7.29823C15.2571 7.21673 15.2072 7.14281 15.1442 7.08078C15.0813 7.01875 15.0067 6.96985 14.9247 6.9369C14.8428 6.90396 14.755 6.88764 14.6667 6.88889H5.33337ZM5.77782 9.55556C5.48313 9.55556 5.20052 9.67262 4.99214 9.88099C4.78377 10.0894 4.66671 10.372 4.66671 10.6667C4.66671 10.9614 4.78377 11.244 4.99214 11.4523C5.20052 11.6607 5.48313 11.7778 5.77782 11.7778C6.0725 11.7778 6.35512 11.6607 6.56349 11.4523C6.77186 11.244 6.88893 10.9614 6.88893 10.6667C6.88893 10.372 6.77186 10.0894 6.56349 9.88099C6.35512 9.67262 6.0725 9.55556 5.77782 9.55556ZM8.88893 10C8.80059 9.99875 8.71288 10.0151 8.6309 10.048C8.54892 10.081 8.47431 10.1299 8.41139 10.1919C8.34848 10.2539 8.29852 10.3278 8.26442 10.4093C8.23033 10.4908 8.21277 10.5783 8.21277 10.6667C8.21277 10.755 8.23033 10.8425 8.26442 10.924C8.29852 11.0055 8.34848 11.0794 8.41139 11.1414C8.47431 11.2035 8.54892 11.2524 8.6309 11.2853C8.71288 11.3183 8.80059 11.3346 8.88893 11.3333H14.6667C14.755 11.3346 14.8428 11.3183 14.9247 11.2853C15.0067 11.2524 15.0813 11.2035 15.1442 11.1414C15.2072 11.0794 15.2571 11.0055 15.2912 10.924C15.3253 10.8425 15.3429 10.755 15.3429 10.6667C15.3429 10.5783 15.3253 10.4908 15.2912 10.4093C15.2571 10.3278 15.2072 10.2539 15.1442 10.1919C15.0813 10.1299 15.0067 10.081 14.9247 10.048C14.8428 10.0151 14.755 9.99875 14.6667 10H8.88893ZM5.77782 12.6667C5.48313 12.6667 5.20052 12.7837 4.99214 12.9921C4.78377 13.2005 4.66671 13.4831 4.66671 13.7778C4.66671 14.0725 4.78377 14.3551 4.99214 14.5635C5.20052 14.7718 5.48313 14.8889 5.77782 14.8889C6.0725 14.8889 6.35512 14.7718 6.56349 14.5635C6.77186 14.3551 6.88893 14.0725 6.88893 13.7778C6.88893 13.4831 6.77186 13.2005 6.56349 12.9921C6.35512 12.7837 6.0725 12.6667 5.77782 12.6667ZM8.88893 13.1111C8.80059 13.1099 8.71288 13.1262 8.6309 13.1591C8.54892 13.1921 8.47431 13.241 8.41139 13.303C8.34848 13.365 8.29852 13.4389 8.26442 13.5205C8.23033 13.602 8.21277 13.6894 8.21277 13.7778C8.21277 13.8661 8.23033 13.9536 8.26442 14.0351C8.29852 14.1166 8.34848 14.1905 8.41139 14.2526C8.47431 14.3146 8.54892 14.3635 8.6309 14.3964C8.71288 14.4294 8.80059 14.4457 8.88893 14.4444H14.6667C14.755 14.4457 14.8428 14.4294 14.9247 14.3964C15.0067 14.3635 15.0813 14.3146 15.1442 14.2526C15.2072 14.1905 15.2571 14.1166 15.2912 14.0351C15.3253 13.9536 15.3429 13.8661 15.3429 13.7778C15.3429 13.6894 15.3253 13.602 15.2912 13.5205C15.2571 13.4389 15.2072 13.365 15.1442 13.303C15.0813 13.241 15.0067 13.1921 14.9247 13.1591C14.8428 13.1262 14.755 13.1099 14.6667 13.1111H8.88893Z" fill="currentColor"></path>
</symbol><symbol id="icon-opened-folder" viewBox="0 0 20 20">
<path d="M3.125 2.5C2.09473 2.5 1.25 3.34473 1.25 4.375V15.625C1.25 16.6553 2.09473 17.5 3.125 17.5H16.875C17.9053 17.5 18.75 16.6553 18.75 15.625V6.875C18.75 5.84473 17.9053 5 16.875 5H8.49609L7.68066 3.48633C7.35352 2.87598 6.71875 2.5 6.03027 2.5H3.125ZM3.125 3.75H6.03027C6.25977 3.75 6.46973 3.87695 6.58203 4.07715L7.75391 6.25H16.875C17.2266 6.25 17.5 6.52344 17.5 6.875V8.75H6.52344C5.72266 8.75 5 9.26758 4.74609 10.0293L2.72461 16.0986C2.58789 15.9863 2.5 15.8203 2.5 15.625V4.375C2.5 4.02344 2.77344 3.75 3.125 3.75ZM6.52344 10H17.5V15.625C17.5 15.9766 17.2266 16.25 16.875 16.25H3.99414L5.93262 10.4297C6.02051 10.1709 6.25488 10 6.52344 10Z" fill="currentColor"></path>
</symbol><symbol id="icon-person-overview" viewBox="0 0 20 20">
<path d="M2.99909 3C1.95008 3 1.09 3.86008 1.09 4.90909V15.0909C1.09 16.1399 1.95008 17 2.99909 17H16.9991C18.0481 17 18.9082 16.1399 18.9082 15.0909V4.90909C18.9082 3.86008 18.0481 3 16.9991 3H2.99909ZM2.99909 4.27273H16.9991C17.357 4.27273 17.6355 4.55114 17.6355 4.90909V15.0909C17.6355 15.4489 17.357 15.7273 16.9991 15.7273H15.09C15.09 15.0263 14.5183 14.4545 13.8173 14.4545C13.1163 14.4545 12.5445 15.0263 12.5445 15.7273H7.45363C7.45363 15.0263 6.8819 14.4545 6.18091 14.4545C5.47991 14.4545 4.90818 15.0263 4.90818 15.7273H2.99909C2.64113 15.7273 2.36272 15.4489 2.36272 15.0909V4.90909C2.36272 4.55114 2.64113 4.27273 2.99909 4.27273ZM7.45363 5.54545C6.05662 5.54545 4.90818 6.69389 4.90818 8.09091C4.90818 8.77202 5.18659 9.39347 5.62409 9.85085C4.44582 10.5021 3.63545 11.745 3.63545 13.1818H4.90818C4.90818 11.7699 6.0417 10.6364 7.45363 10.6364C8.86556 10.6364 9.99909 11.7699 9.99909 13.1818H11.2718C11.2718 11.745 10.4614 10.5021 9.28318 9.85085C9.72068 9.39347 9.99909 8.77202 9.99909 8.09091C9.99909 6.69389 8.85065 5.54545 7.45363 5.54545ZM7.45363 6.81818C8.16457 6.81818 8.72636 7.37997 8.72636 8.09091C8.72636 8.80185 8.16457 9.36364 7.45363 9.36364C6.74269 9.36364 6.18091 8.80185 6.18091 8.09091C6.18091 7.37997 6.74269 6.81818 7.45363 6.81818ZM12.5445 8.09091V9.36364H16.3627V8.09091H12.5445ZM12.5445 10.6364V11.9091H16.3627V10.6364H12.5445Z" fill="currentColor"></path>
</symbol><symbol id="icon-reference-block" viewBox="0 0 20 20">
<path d="M3.75 1.875C2.72184 1.875 1.875 2.72184 1.875 3.75V16.25C1.875 17.2782 2.72184 18.125 3.75 18.125H16.25C17.2782 18.125 18.125 17.2782 18.125 16.25V3.75C18.125 2.72184 17.2782 1.875 16.25 1.875H3.75ZM3.75 3.125H16.25C16.6018 3.125 16.875 3.39816 16.875 3.75V16.25C16.875 16.6018 16.6018 16.875 16.25 16.875H3.75C3.39816 16.875 3.125 16.6018 3.125 16.25V3.75C3.125 3.39816 3.39816 3.125 3.75 3.125ZM5.625 5.625V6.875H14.375V5.625H5.625ZM5.625 8.125V9.375H10.625V8.125H5.625ZM5.625 10.625V11.875H14.375V10.625H5.625ZM5.625 13.125V14.375H10.625V13.125H5.625Z" fill="currentColor"></path>
</symbol><symbol id="icon-network" viewBox="0 0 20 20">
<path d="M3.22616 2C2.21174 2 1.38 2.83173 1.38 3.84615C1.38 4.86058 2.21174 5.69231 3.22616 5.69231C3.50981 5.69231 3.77424 5.62019 4.01462 5.50481L6.81751 8.30769C6.49539 8.79327 6.30308 9.375 6.30308 10C6.30308 10.4904 6.42808 10.9519 6.63962 11.3654L4.18289 13.351C3.90404 13.1827 3.57712 13.0769 3.22616 13.0769C2.21174 13.0769 1.38 13.9087 1.38 14.9231C1.38 15.9375 2.21174 16.7692 3.22616 16.7692C4.24058 16.7692 5.07231 15.9375 5.07231 14.9231C5.07231 14.7067 5.02904 14.5048 4.95693 14.3125L7.39924 12.3317C7.9377 12.7885 8.6252 13.0769 9.38 13.0769C9.71174 13.0769 10.0242 13.0096 10.3223 12.9135L11.6348 15.0144C11.3848 15.3317 11.2262 15.7212 11.2262 16.1538C11.2262 17.1683 12.0579 18 13.0723 18C14.0867 18 14.9185 17.1683 14.9185 16.1538C14.9185 15.1394 14.0867 14.3077 13.0723 14.3077C12.9377 14.3077 12.8031 14.3269 12.6733 14.351L11.3992 12.3029C11.8079 11.9423 12.1204 11.476 12.2935 10.9423L14.9425 11.4856C15.0723 12.3798 15.8415 13.0769 16.7646 13.0769C17.779 13.0769 18.6108 12.2452 18.6108 11.2308C18.6108 10.2163 17.779 9.38462 16.7646 9.38462C16.1012 9.38462 15.5194 9.75 15.1925 10.2788L12.4281 9.71154C12.3512 8.90865 11.9714 8.19712 11.3896 7.69231L12.6685 5.64423C12.7983 5.67308 12.9329 5.69231 13.0723 5.69231C14.0867 5.69231 14.9185 4.86058 14.9185 3.84615C14.9185 2.83173 14.0867 2 13.0723 2C12.0579 2 11.2262 2.83173 11.2262 3.84615C11.2262 4.27404 11.38 4.66827 11.63 4.98077L10.3175 7.08654C10.0194 6.99039 9.70693 6.92308 9.38 6.92308C8.75501 6.92308 8.17327 7.11539 7.6877 7.4375L4.88481 4.63462C5.0002 4.39423 5.07231 4.12981 5.07231 3.84615C5.07231 2.83173 4.24058 2 3.22616 2ZM3.22616 3.23077C3.57231 3.23077 3.84154 3.5 3.84154 3.84615C3.84154 4.19231 3.57231 4.46154 3.22616 4.46154C2.88 4.46154 2.61077 4.19231 2.61077 3.84615C2.61077 3.5 2.88 3.23077 3.22616 3.23077ZM13.0723 3.23077C13.4185 3.23077 13.6877 3.5 13.6877 3.84615C13.6877 4.19231 13.4185 4.46154 13.0723 4.46154C12.7262 4.46154 12.4569 4.19231 12.4569 3.84615C12.4569 3.5 12.7262 3.23077 13.0723 3.23077ZM9.38 8.15385C10.4089 8.15385 11.2262 8.97115 11.2262 10C11.2262 10.6635 10.88 11.2356 10.3608 11.5625C10.2983 11.5865 10.2406 11.6154 10.1877 11.6587C9.9425 11.774 9.66847 11.8462 9.38 11.8462C8.35116 11.8462 7.53385 11.0288 7.53385 10C7.53385 8.97115 8.35116 8.15385 9.38 8.15385ZM16.7646 10.6154C17.1108 10.6154 17.38 10.8846 17.38 11.2308C17.38 11.5769 17.1108 11.8462 16.7646 11.8462C16.4185 11.8462 16.1492 11.5769 16.1492 11.2308C16.1492 10.8846 16.4185 10.6154 16.7646 10.6154ZM3.22616 14.3077C3.57231 14.3077 3.84154 14.5769 3.84154 14.9231C3.84154 15.2692 3.57231 15.5385 3.22616 15.5385C2.88 15.5385 2.61077 15.2692 2.61077 14.9231C2.61077 14.5769 2.88 14.3077 3.22616 14.3077ZM13.0723 15.5385C13.4185 15.5385 13.6877 15.8077 13.6877 16.1538C13.6877 16.5 13.4185 16.7692 13.0723 16.7692C12.7262 16.7692 12.4569 16.5 12.4569 16.1538C12.4569 15.8077 12.7262 15.5385 13.0723 15.5385Z" fill="currentColor"></path>
</symbol><symbol id="icon-search" viewBox="0 0 20 20">
<path d="M8.54167 2.5C5.21235 2.5 2.5 5.21235 2.5 8.54167C2.5 11.871 5.21235 14.5833 8.54167 14.5833C9.98182 14.5833 11.3057 14.0746 12.3454 13.2292L16.4331 17.3169C16.4907 17.3769 16.5597 17.4248 16.636 17.4578C16.7123 17.4907 16.7945 17.5082 16.8776 17.509C16.9608 17.5099 17.0433 17.4941 17.1202 17.4627C17.1972 17.4312 17.2672 17.3848 17.326 17.326C17.3848 17.2672 17.4312 17.1972 17.4627 17.1202C17.4941 17.0433 17.5099 16.9608 17.509 16.8776C17.5082 16.7945 17.4907 16.7123 17.4578 16.636C17.4248 16.5597 17.3769 16.4907 17.3169 16.4331L13.2292 12.3454C14.0746 11.3057 14.5833 9.98182 14.5833 8.54167C14.5833 5.21235 11.871 2.5 8.54167 2.5ZM8.54167 3.75C11.1954 3.75 13.3333 5.8879 13.3333 8.54167C13.3333 9.83442 12.8234 11.0024 11.9963 11.8628C11.9453 11.9003 11.9003 11.9453 11.8628 11.9963C11.0024 12.8234 9.83442 13.3333 8.54167 13.3333C5.8879 13.3333 3.75 11.1954 3.75 8.54167C3.75 5.8879 5.8879 3.75 8.54167 3.75Z" fill="currentColor"></path>
</symbol><symbol id="icon-tag" viewBox="0 0 20 20">
<path d="M3.75 1.875C2.71973 1.875 1.875 2.71973 1.875 3.75V16.25C1.875 17.2803 2.71973 18.125 3.75 18.125H16.25C17.2803 18.125 18.125 17.2803 18.125 16.25V3.75C18.125 2.71973 17.2803 1.875 16.25 1.875H3.75ZM3.75 3.125H16.25C16.6016 3.125 16.875 3.39844 16.875 3.75V16.25C16.875 16.6016 16.6016 16.875 16.25 16.875H3.75C3.39844 16.875 3.125 16.6016 3.125 16.25V3.75C3.125 3.39844 3.39844 3.125 3.75 3.125ZM8.125 5.625V8.125H5.625V9.375H8.125V10.625H5.625V11.875H8.125V14.375H9.375V11.875H10.625V14.375H11.875V11.875H14.375V10.625H11.875V9.375H14.375V8.125H11.875V5.625H10.625V8.125H9.375V5.625H8.125ZM9.375 9.375H10.625V10.625H9.375V9.375Z" fill="currentColor"></path>
</symbol><symbol id="icon-skills" viewBox="0 0 20 20">
<path d="M1.27656 1.25V3.75H1.32783L1.31074 3.76709L2.52656 4.98291V5H2.54365L3.77656 6.23291V6.25H3.79365L5.02656 7.48535V7.5H5.04121L6.27657 8.73535V14.5679L4.41621 12.7441L5.06319 12.0972L4.1794 11.2134L3.5251 11.8677L2.71455 11.0718C2.48158 10.8333 2.46498 10.6522 2.51192 10.4053C2.55886 10.1583 2.73082 9.87387 2.89033 9.71436L2.00654 8.82812C1.67856 9.15611 1.39039 9.61065 1.28389 10.1709C1.17739 10.7311 1.31272 11.4255 1.821 11.9458L1.82588 11.9507L6.39864 16.438C6.76124 17.7621 7.96813 18.75 9.40157 18.75C11.1175 18.75 12.5266 17.3409 12.5266 15.625V10.2515C13.6691 11.2299 15.631 12.5 18.1516 12.5C18.2678 12.5002 18.3819 12.468 18.4808 12.4069C18.5798 12.3459 18.6597 12.2585 18.7117 12.1545C18.7637 12.0505 18.7857 11.934 18.7752 11.8183C18.7646 11.7025 18.722 11.5919 18.6521 11.499L12.0505 2.72949C12.0427 2.71948 12.0345 2.70971 12.0261 2.7002C11.4686 1.83247 10.5015 1.25 9.40157 1.25C7.68566 1.25 6.27657 2.65909 6.27657 4.375V5H5.02656V3.75H3.77656V2.5H2.52656V1.25H1.27656ZM9.40157 2.5C10.0557 2.5 10.6309 2.83819 10.9665 3.34717C10.9794 3.37932 10.9949 3.41036 11.0129 3.43994C11.0918 3.57501 11.1514 3.7165 11.196 3.8623C11.2007 3.87874 11.2064 3.89452 11.2106 3.91113C11.2517 4.0605 11.2766 4.21472 11.2766 4.375V8.75V15.625C11.2766 16.6591 10.4357 17.5 9.40157 17.5C8.36748 17.5 7.52657 16.6591 7.52657 15.625V4.375C7.52657 3.34091 8.36748 2.5 9.40157 2.5ZM12.5266 5.44189L16.6843 10.9668C14.2484 10.3543 12.685 8.66954 12.5266 8.48145V5.44189Z" fill="currentColor"></path>
</symbol><symbol id="icon-sources" viewBox="0 0 20 20">
<path d="M9.38462 2V6.92308H6.92308L10 10L13.0769 6.92308H10.6154V2H9.38462ZM2 5.69231V6.92308H3.84615C4.19231 6.92308 4.46154 7.19231 4.46154 7.53846V10.6154H2L5.07692 13.6923L8.15385 10.6154H5.69231V7.53846C5.69231 6.52404 4.86058 5.69231 3.84615 5.69231H2ZM16.1538 5.69231C15.1394 5.69231 14.3077 6.52404 14.3077 7.53846V10.6154H11.8462L14.9231 13.6923L18 10.6154H15.5385V7.53846C15.5385 7.19231 15.8077 6.92308 16.1538 6.92308H18V5.69231H16.1538ZM2 14.3077V16.1538C2 17.1683 2.83173 18 3.84615 18H16.1538C17.1683 18 18 17.1683 18 16.1538V14.3077H16.7692V16.1538C16.7692 16.5 16.5 16.7692 16.1538 16.7692H3.84615C3.5 16.7692 3.23077 16.5 3.23077 16.1538V14.3077H2Z" fill="currentColor"></path>
</symbol><symbol id="icon-share" viewBox="0 0 20 20">
<path d="M13.5433 2L12.726 2.86695L15.3494 5.67008H12.9879C10.5315 5.67008 8.46348 6.82119 7.03663 8.60807C5.60978 10.3949 4.79702 12.8031 4.75186 15.3654C4.75186 15.4377 4.75186 15.4907 4.75186 15.534H5.90779C5.90779 15.4714 5.90779 15.4232 5.90779 15.3943C5.94843 13.0873 6.67992 10.9488 7.91261 9.40759C9.14982 7.86634 10.8656 6.90307 12.9879 6.90307H15.3494L12.726 9.7062L13.5433 10.5731L17.5619 6.28657L13.5433 2ZM2.44 5.67008V16.1505C2.44 17.1668 3.22116 18 4.1739 18H15.7332C16.6859 18 17.4671 17.1668 17.4671 16.1505V11.835H16.3112V16.1505C16.3112 16.4973 16.0583 16.767 15.7332 16.767H4.1739C3.84879 16.767 3.59593 16.4973 3.59593 16.1505V5.67008H2.44Z" fill="currentColor"></path>
</symbol><symbol id="icon-table-view" viewBox="0 0 20 20">
<path fill-rule="evenodd" clip-rule="evenodd" d="M2 3.84615C2 2.83173 2.83173 2 3.84615 2H16.1538C17.1683 2 18 2.83173 18 3.84615V16.1538C18 17.1683 17.1683 18 16.1538 18H3.84615C2.83173 18 2 17.1683 2 16.1538V3.84615ZM6.92308 3.23077H3.84615C3.5 3.23077 3.23077 3.5 3.23077 3.84615V6.92308H6.92308V3.23077ZM6.92308 8.15385H3.23077V11.8462H6.92308V8.15385ZM16.7692 8.15385H8.15385V11.8462H16.7692V8.15385ZM6.92308 13.0769H3.23077V16.1538C3.23077 16.5 3.5 16.7692 3.84615 16.7692H6.92308V13.0769ZM16.7692 13.0769H8.15385V16.7692H16.1538C16.5 16.7692 16.7692 16.5 16.7692 16.1538V13.0769ZM8.15385 3.23077H13.0769H16.1538C16.5 3.23077 16.7692 3.5 16.7692 3.84615V6.92308H13.0769H8.15385V3.23077Z" fill="currentColor"></path>
</symbol><symbol id="icon-task" viewBox="0 0 20 20">
<path d="M9.375 1.25C8.69141 1.25 8.125 1.81641 8.125 2.5H5C3.96973 2.5 3.125 3.34473 3.125 4.375V16.875C3.125 17.9053 3.96973 18.75 5 18.75H15C16.0303 18.75 16.875 17.9053 16.875 16.875V4.375C16.875 3.34473 16.0303 2.5 15 2.5H11.875C11.875 1.81641 11.3086 1.25 10.625 1.25H9.375ZM9.375 2.5H10.625V3.75H9.375V2.5ZM5 3.75H8.125V5H11.875V3.75H15C15.3516 3.75 15.625 4.02344 15.625 4.375V16.875C15.625 17.2266 15.3516 17.5 15 17.5H5C4.64844 17.5 4.375 17.2266 4.375 16.875V4.375C4.375 4.02344 4.64844 3.75 5 3.75ZM12.373 9.0918L9.375 12.085L7.62695 10.3418L6.74805 11.2207L9.375 13.8525L13.2568 9.9707L12.373 9.0918Z" fill="currentColor"></path>
</symbol><symbol id="icon-essay" viewBox="0 0 20 20">
<path d="M3.125 2.5C2.6123 2.5 2.12402 2.68066 1.77734 3.02734C1.43066 3.36914 1.25 3.85742 1.25 4.375V5.625C1.25 5.97168 1.52832 6.25 1.875 6.25H3.75V15.4688C3.75 16.499 4.51172 17.5 5.625 17.5H16.7725V17.4902C16.8066 17.4902 16.8408 17.5 16.875 17.5C17.3877 17.5 17.876 17.3193 18.2227 16.9727C18.5693 16.6309 18.75 16.1426 18.75 15.625V14.375C18.75 14.0283 18.4717 13.75 18.125 13.75H16.25V4.375C16.25 3.85742 16.0693 3.36914 15.7227 3.02734C15.3955 2.7002 14.9414 2.52441 14.458 2.50977C14.4336 2.50488 14.4092 2.5 14.3799 2.5C14.3799 2.5 14.3799 2.5 14.375 2.5H3.125ZM3.125 3.75H12.793C12.6807 4.01367 12.5 4.24316 12.5 4.53125V5H2.5V4.375C2.5 4.13574 2.56836 4.00391 2.66113 3.91113C2.75391 3.81836 2.89062 3.75 3.125 3.75ZM14.375 3.75C14.6094 3.75 14.7461 3.81836 14.8389 3.91113C14.9316 4.00391 15 4.13574 15 4.375V15.625C15 15.8398 15.0391 16.0498 15.1025 16.25H5.625C5.23926 16.25 5 15.9473 5 15.4688V6.25H13.125C13.4717 6.25 13.75 5.97168 13.75 5.625V4.53125C13.75 4.05274 13.9893 3.75 14.375 3.75ZM6.25 7.5V8.75H12.5V7.5H6.25ZM6.25 10V11.25H12.5V10H6.25ZM6.25 12.5V13.75H10V12.5H6.25ZM16.25 15H17.5V15.625C17.5 15.8643 17.4316 15.9961 17.3389 16.0889C17.2461 16.1816 17.1094 16.25 16.875 16.25C16.6406 16.25 16.5039 16.1816 16.4111 16.0889C16.3184 15.9961 16.25 15.8643 16.25 15.625V15Z" fill="currentColor"></path>
</symbol><symbol id="icon-link" viewBox="0 0 20 20">
<path d="M10 1.875C6.62598 1.875 3.73047 3.94043 2.5 6.875H3.88672C4.59961 5.47852 5.77637 4.36035 7.21191 3.7207C6.66504 4.55566 6.22559 5.625 5.95215 6.875H7.24609C7.8125 4.58008 8.94531 3.125 10 3.125C11.0547 3.125 12.1875 4.58008 12.7539 6.875H14.0479C13.7744 5.625 13.335 4.55566 12.7881 3.7207C14.2236 4.36035 15.4004 5.47852 16.1133 6.875H17.5C16.2695 3.94043 13.374 1.875 10 1.875ZM0.625 8.125L1.8457 13.125H3.02734L3.75 9.93652L4.47266 13.125H5.6543L6.875 8.125H5.625L5.0293 11.1328L4.375 8.125H3.125L2.4707 11.1328L1.875 8.125H0.625ZM6.875 8.125L8.0957 13.125H9.27734L10 9.93652L10.7227 13.125H11.9043L13.125 8.125H11.875L11.2793 11.1328L10.625 8.125H9.375L8.7207 11.1328L8.125 8.125H6.875ZM13.125 8.125L14.3506 13.125H15.5273L16.25 9.93652L16.9727 13.125H18.1494L19.375 8.125H18.125L17.5342 11.1328L16.875 8.125H15.625L14.9658 11.1328L14.375 8.125H13.125ZM3.16406 14.375C4.60938 16.626 7.12891 18.125 10 18.125C12.8711 18.125 15.3906 16.626 16.8359 14.375H15.2979C14.624 15.1855 13.7646 15.835 12.793 16.2695C13.1445 15.7324 13.457 15.0977 13.7012 14.375H12.3535C11.7383 15.9277 10.8496 16.875 10 16.875C9.15039 16.875 8.26172 15.9277 7.64648 14.375H6.29883C6.54297 15.0977 6.85547 15.7324 7.20703 16.2695C6.23535 15.835 5.37598 15.1855 4.70215 14.375H3.16406Z" fill="currentColor"></path>
</symbol><symbol id="icon-back" viewBox="0 0 20 20">
<path d="M7.29492 4.375L1.875 9.96582L7.29492 15.5566L8.19336 14.6875L4.2334 10.6006H18.2129V9.35059H4.20898L8.19336 5.24414L7.29492 4.375Z" fill="currentColor"></path>
</symbol><symbol id="icon-mention" viewBox="0 0 20 20">
<path d="M3.75 1.875C2.71973 1.875 1.875 2.71973 1.875 3.75V13.75C1.875 14.7803 2.71973 15.625 3.75 15.625H5.625V18.667L10.1904 15.625H16.25C17.2803 15.625 18.125 14.7803 18.125 13.75V3.75C18.125 2.71973 17.2803 1.875 16.25 1.875H3.75ZM3.75 3.125H16.25C16.6016 3.125 16.875 3.39844 16.875 3.75V13.75C16.875 14.1016 16.6016 14.375 16.25 14.375H9.80957L6.875 16.333V14.375H3.75C3.39844 14.375 3.125 14.1016 3.125 13.75V3.75C3.125 3.39844 3.39844 3.125 3.75 3.125ZM8.125 5.625L5 8.75L8.125 11.875V9.375H12.5C12.8516 9.375 13.125 9.64844 13.125 10V11.875H14.375V10C14.375 8.96973 13.5303 8.125 12.5 8.125H8.125V5.625Z" fill="currentColor"></path>
</symbol><symbol id="icon-references" viewBox="0 0 20 20">
<path d="M3.75 1.66666C2.71973 1.66666 1.875 2.51139 1.875 3.54166V13.5417C1.875 14.5719 2.71973 15.4167 3.75 15.4167H5.625V18.4587L10.1904 15.4167H16.25C17.2803 15.4167 18.125 14.5719 18.125 13.5417V3.54166C18.125 2.51139 17.2803 1.66666 16.25 1.66666H3.75ZM3.75 2.91666H16.25C16.6016 2.91666 16.875 3.1901 16.875 3.54166V13.5417C16.875 13.8932 16.6016 14.1667 16.25 14.1667H9.80957L6.875 16.1247V14.1667H3.75C3.39844 14.1667 3.125 13.8932 3.125 13.5417V3.54166C3.125 3.1901 3.39844 2.91666 3.75 2.91666ZM10 5.41666L9.04297 7.55534L6.71387 7.80436L8.45703 9.37174L7.96875 11.6667L10 10.4948L12.0312 11.6667L11.543 9.37174L13.2861 7.80436L10.957 7.55534L10 5.41666Z" fill="currentColor"></path>
</symbol><symbol id="icon-book" viewBox="0 0 20 20">
<path d="M0.625 2.5V16.25H1.875V17.5H18.125V16.25H19.375V2.5H12.2852C11.4551 2.5 10.6592 2.83203 10.0781 3.41797L10 3.49121L9.92188 3.41797C9.34082 2.83203 8.54492 2.5 7.71484 2.5H0.625ZM1.875 3.75H7.71484C8.21289 3.75 8.68652 3.94531 9.04297 4.29688L9.375 4.63379V15.4883C8.88184 15.1758 8.30566 15 7.71484 15H1.875V3.75ZM12.2852 3.75H18.125V15H12.2852C11.6943 15 11.1182 15.1758 10.625 15.4883V4.63379L10.957 4.29688C11.3135 3.94531 11.7871 3.75 12.2852 3.75Z" fill="currentColor"></path>
</symbol><symbol id="icon-tracking-or-journey" viewBox="0 0 20 20">
<path d="M15.4091 3.5C14.6446 3.5 13.9935 3.99751 13.7472 4.68182H7.13636C6.17857 4.68182 5.34919 5.16099 4.81197 5.86825C4.7986 5.86795 4.78616 5.86364 4.77273 5.86364C3.80068 5.86364 3 6.66431 3 7.63636C3 8.60841 3.80068 9.40909 4.77273 9.40909C4.78616 9.40909 4.7986 9.40478 4.81197 9.40447C5.34919 10.1117 6.17857 10.5909 7.13636 10.5909H13.0455C13.5051 10.5909 13.9089 10.7747 14.2203 11.0618C13.8648 11.387 13.6364 11.849 13.6364 12.3636C13.6364 12.8783 13.8648 13.3403 14.2203 13.6655C13.9089 13.9525 13.5051 14.1364 13.0455 14.1364H6.43466C6.18827 13.4521 5.53718 12.9545 4.77273 12.9545C3.80068 12.9545 3 13.7552 3 14.7273C3 15.6993 3.80068 16.5 4.77273 16.5C5.53718 16.5 6.18827 16.0025 6.43466 15.3182H13.0455C14.0032 15.3182 14.8326 14.839 15.3699 14.1317C15.3832 14.1321 15.3957 14.1364 15.4091 14.1364C16.3811 14.1364 17.1818 13.3357 17.1818 12.3636C17.1818 11.3916 16.3811 10.5909 15.4091 10.5909C15.3957 10.5909 15.3832 10.5952 15.3699 10.5955C14.8326 9.88826 14.0032 9.40909 13.0455 9.40909H7.13636C6.67672 9.40909 6.27288 9.22528 5.96147 8.93821C6.31698 8.61303 6.54545 8.15103 6.54545 7.63636C6.54545 7.1217 6.31698 6.65969 5.96147 6.33452C6.27288 6.04745 6.67672 5.86364 7.13636 5.86364H13.7472C13.9935 6.54794 14.6446 7.04545 15.4091 7.04545C16.3811 7.04545 17.1818 6.24478 17.1818 5.27273C17.1818 4.30068 16.3811 3.5 15.4091 3.5ZM15.4091 4.68182C15.7424 4.68182 16 4.93938 16 5.27273C16 5.60608 15.7424 5.86364 15.4091 5.86364C15.0757 5.86364 14.8182 5.60608 14.8182 5.27273C14.8182 4.93938 15.0757 4.68182 15.4091 4.68182ZM4.77273 7.04545C5.10608 7.04545 5.36364 7.30301 5.36364 7.63636C5.36364 7.96971 5.10608 8.22727 4.77273 8.22727C4.43938 8.22727 4.18182 7.96971 4.18182 7.63636C4.18182 7.30301 4.43938 7.04545 4.77273 7.04545ZM15.4091 11.7727C15.7424 11.7727 16 12.0303 16 12.3636C16 12.697 15.7424 12.9545 15.4091 12.9545C15.0757 12.9545 14.8182 12.697 14.8182 12.3636C14.8182 12.0303 15.0757 11.7727 15.4091 11.7727ZM4.77273 14.1364C5.10608 14.1364 5.36364 14.3939 5.36364 14.7273C5.36364 15.0606 5.10608 15.3182 4.77273 15.3182C4.43938 15.3182 4.18182 15.0606 4.18182 14.7273C4.18182 14.3939 4.43938 14.1364 4.77273 14.1364Z" fill="currentColor"></path>
</symbol><symbol id="icon-email" viewBox="0 0 20 20">
<path fill-rule="evenodd" clip-rule="evenodd" d="M1.25 3.95834C1.25 2.92806 2.09473 2.08334 3.125 2.08334H16.875C17.9053 2.08334 18.75 2.92806 18.75 3.95834V8.125H17.5V4.52474L10 9.72005L2.5 4.52474V13.9583C2.5 14.3099 2.77344 14.5833 3.125 14.5833H9.79167V15.8333H3.125C2.09473 15.8333 1.25 14.9886 1.25 13.9583V3.95834ZM16.875 3.33334H3.125C3.0927 3.33334 3.06568 3.34125 3.03811 3.34932C3.02817 3.35223 3.01817 3.35516 3.00781 3.35775L10 8.19662L16.9922 3.35775C16.9818 3.35516 16.9718 3.35223 16.9619 3.34932C16.9343 3.34125 16.9073 3.33334 16.875 3.33334ZM16.4434 17.7739C16.119 17.8249 15.7801 17.8505 15.4267 17.8505C14.6979 17.8505 14.031 17.743 13.4261 17.528C12.8248 17.313 12.3055 17.0014 11.8682 16.5932C11.4309 16.1888 11.0939 15.6986 10.857 15.1229C10.6201 14.5471 10.5017 13.8966 10.5017 13.1715V13.166C10.5017 12.4773 10.6147 11.8505 10.8406 11.2857C11.0702 10.7208 11.3927 10.2343 11.8081 9.8262C12.2272 9.41442 12.7246 9.09739 13.3004 8.8751C13.8798 8.65281 14.5175 8.54167 15.2135 8.54167C16.1063 8.54167 16.8861 8.71476 17.553 9.06095C18.2235 9.40714 18.7428 9.89726 19.1108 10.5313C19.4825 11.1654 19.6684 11.9088 19.6684 12.7615V12.767C19.6684 13.3391 19.5864 13.8347 19.4224 14.2538C19.2584 14.6692 19.0307 14.9899 18.7391 15.2158C18.4476 15.4381 18.1069 15.5492 17.717 15.5492C17.3817 15.5492 17.0884 15.4745 16.8369 15.3251C16.5891 15.1721 16.4015 14.968 16.2739 14.7129L16.2029 14.5927H16.1591C16.0134 14.9133 15.8093 15.1575 15.5469 15.3251C15.2882 15.4927 14.9894 15.5766 14.6505 15.5766C14.2824 15.5766 13.9563 15.4782 13.6721 15.2814C13.3915 15.081 13.171 14.8022 13.0107 14.4451C12.854 14.0843 12.7756 13.6634 12.7756 13.1824V13.1769C12.7756 12.7287 12.8576 12.3333 13.0216 11.9908C13.1856 11.6446 13.4079 11.3749 13.6885 11.1818C13.9727 10.985 14.2915 10.8866 14.645 10.8866C14.9548 10.8866 15.2281 10.9613 15.4649 11.1107C15.7018 11.2565 15.8749 11.4569 15.9842 11.712H16.0279V11.0124H17.2852V13.5104C17.2852 13.8128 17.3325 14.046 17.4273 14.21C17.5257 14.3704 17.6568 14.4505 17.8208 14.4505C17.9666 14.4505 18.0923 14.3868 18.198 14.2592C18.3037 14.128 18.3857 13.9422 18.444 13.7017C18.5023 13.4575 18.5314 13.1678 18.5314 12.8326V12.8271C18.5314 12.1493 18.3948 11.5626 18.1215 11.067C17.8518 10.5714 17.4674 10.1906 16.9681 9.92459C16.4725 9.65493 15.8822 9.5201 15.1971 9.5201C14.6687 9.5201 14.1859 9.60756 13.7486 9.78248C13.3149 9.95739 12.9396 10.207 12.6226 10.5313C12.3092 10.852 12.0668 11.2365 11.8956 11.6847C11.7243 12.1329 11.6387 12.6303 11.6387 13.1769V13.1824C11.6387 13.9622 11.799 14.6254 12.1197 15.1721C12.444 15.7187 12.8977 16.1359 13.4807 16.4238C14.0638 16.708 14.7525 16.8502 15.5469 16.8502C15.7656 16.8502 15.9806 16.8392 16.1919 16.8174C16.4069 16.7955 16.6146 16.7627 16.8151 16.719C17.0191 16.6789 17.2104 16.6279 17.389 16.5659V17.5498C17.0865 17.6519 16.7713 17.7266 16.4434 17.7739ZM14.6013 14.3029C14.7252 14.3977 14.871 14.4451 15.0386 14.4451C15.2937 14.4451 15.4977 14.3376 15.6508 14.1226C15.8038 13.9039 15.8804 13.6033 15.8804 13.2207V13.2043C15.8804 12.8326 15.802 12.541 15.6453 12.3297C15.4923 12.1147 15.29 12.0072 15.0386 12.0072C14.871 12.0072 14.7252 12.0546 14.6013 12.1493C14.4774 12.244 14.3808 12.3825 14.3116 12.5647C14.246 12.7433 14.2132 12.9601 14.2132 13.2152V13.2207C14.2132 13.4794 14.246 13.6999 14.3116 13.8821C14.3808 14.0643 14.4774 14.2046 14.6013 14.3029Z" fill="currentColor"></path>
</symbol><symbol id="icon-text-message" viewBox="0 0 20 20">
<path d="M4.05657 2C3.07489 2 2.27 2.80488 2.27 3.78657V13.3149C2.27 14.2966 3.07489 15.1015 4.05657 15.1015H5.84313V18L10.1932 15.1015H15.967C16.9487 15.1015 17.7536 14.2966 17.7536 13.3149V3.78657C17.7536 2.80488 16.9487 2 15.967 2H4.05657ZM4.05657 3.19104H15.967C16.302 3.19104 16.5625 3.45158 16.5625 3.78657V13.3149C16.5625 13.6499 16.302 13.9104 15.967 13.9104H9.83034L7.03418 15.7761V13.9104H4.05657C3.72159 13.9104 3.46104 13.6499 3.46104 13.3149V3.78657C3.46104 3.45158 3.72159 3.19104 4.05657 3.19104ZM6.43865 7.95522C6.10833 7.95522 5.84313 8.22041 5.84313 8.55074C5.84313 8.88107 6.10833 9.14626 6.43865 9.14626C6.76898 9.14626 7.03418 8.88107 7.03418 8.55074C7.03418 8.22041 6.76898 7.95522 6.43865 7.95522ZM10.0118 7.95522C9.68146 7.95522 9.41626 8.22041 9.41626 8.55074C9.41626 8.88107 9.68146 9.14626 10.0118 9.14626C10.3421 9.14626 10.6073 8.88107 10.6073 8.55074C10.6073 8.22041 10.3421 7.95522 10.0118 7.95522ZM13.5849 7.95522C13.2546 7.95522 12.9894 8.22041 12.9894 8.55074C12.9894 8.88107 13.2546 9.14626 13.5849 9.14626C13.9152 9.14626 14.1804 8.88107 14.1804 8.55074C14.1804 8.22041 13.9152 7.95522 13.5849 7.95522Z" fill="currentColor"></path>
</symbol></defs></svg>